<svg width="110" height="64" viewBox="0 0 110 64" fill="none" xmlns="http://www.w3.org/2000/svg">
<path d="M58.4963 14.4065C53.8201 10.3652 47.569 8.27339 41.4532 8.71741C38.4005 8.92555 35.3894 9.70607 32.6489 11.0624C29.905 12.4084 27.4385 14.3025 25.4231 16.5955C23.3937 18.8746 21.8153 21.5561 20.8163 24.4423C20.3167 25.8854 19.9594 27.377 19.7513 28.893C19.7027 29.2711 19.6438 29.6492 19.623 30.0308C19.5952 30.4124 19.5535 30.7905 19.5501 31.1756C19.5154 31.9422 19.5119 32.7019 19.5952 33.4547C19.897 36.4796 21.3817 39.3658 23.6504 41.416C24.7744 42.4497 26.0926 43.2788 27.5218 43.8408C28.951 44.4028 30.4809 44.708 32.0245 44.7393C28.9337 44.8052 25.822 43.6708 23.477 41.6102C21.1285 39.5601 19.5536 36.6184 19.1893 33.4998C18.6621 27.2626 20.8926 20.9143 25.0276 16.2416C27.1021 13.9105 29.6344 11.9887 32.4408 10.6288C35.2472 9.26898 38.3242 8.46071 41.4359 8.31154C44.5441 8.1485 47.6835 8.59253 50.6078 9.63669C53.5252 10.6913 56.2345 12.3147 58.5032 14.41L58.4963 14.4065Z" fill="#081735"/>
<path d="M32.0209 44.7357C30.3905 44.7634 28.7462 44.5102 27.1956 43.9725C26.8071 43.8372 26.4255 43.6881 26.0508 43.5216C25.6727 43.3585 25.3154 43.1573 24.9477 42.97C24.7638 42.8798 24.5938 42.7619 24.4169 42.6578C24.2435 42.5468 24.0596 42.4496 23.8931 42.3317C23.5601 42.0889 23.2097 41.8703 22.901 41.5997C21.6209 40.566 20.5039 39.3172 19.654 37.9018C18.7972 36.4934 18.1589 34.9393 17.8363 33.3158L17.7218 32.7053C17.6802 32.5041 17.6698 32.2959 17.642 32.0913C17.6212 31.8866 17.59 31.6785 17.5761 31.4738L17.5484 30.8529C17.5172 30.0238 17.5588 29.2051 17.6212 28.3829C17.7565 26.7421 18.0618 25.1117 18.5405 23.5333C19.0158 21.9549 19.6506 20.4251 20.4415 18.9751C21.2324 17.5251 22.1691 16.1583 23.2652 14.9164C25.475 12.4569 28.2085 10.4865 31.2231 9.15095C34.2376 7.81886 37.5297 7.11813 40.8183 7.09384C44.1068 7.04528 47.4058 7.66276 50.4412 8.91159C53.4765 10.1639 56.2413 12.0475 58.4961 14.4064C53.8373 9.82046 47.3052 7.29158 40.8252 7.50665C39.2087 7.55175 37.5956 7.74254 36.0137 8.08597C34.4354 8.43287 32.8917 8.93587 31.4173 9.59844C28.4722 10.9167 25.8045 12.8662 23.6607 15.2702C22.5888 16.474 21.6626 17.806 20.8855 19.2214C20.105 20.6333 19.4736 22.1284 19.0019 23.6755C18.5266 25.2192 18.2179 26.815 18.0791 28.4246C17.9403 30.0376 17.93 31.6577 18.2387 33.2395C18.5266 34.8248 19.1267 36.3442 19.9419 37.7353C20.7537 39.1298 21.8291 40.3683 23.0675 41.4055C23.3658 41.6795 23.7058 41.9015 24.0249 42.1478C24.1845 42.2693 24.3615 42.3699 24.5314 42.4843C24.7049 42.5919 24.8679 42.7098 25.0483 42.8069C25.4056 42.9977 25.7525 43.2059 26.1237 43.3759C26.4914 43.5493 26.866 43.7054 27.2442 43.8476C28.767 44.4096 30.3905 44.7149 32.0209 44.7426V44.7357Z" fill="#081735"/>
<path d="M32.0211 44.7355C30.3005 44.7633 28.5695 44.5066 26.9252 43.9689C26.5124 43.8371 26.11 43.6844 25.711 43.5179C25.5098 43.4347 25.3121 43.3479 25.1179 43.2543C24.9236 43.1606 24.7328 43.0565 24.5385 42.9594C24.3477 42.8553 24.15 42.7652 23.9662 42.6541L23.4111 42.3142L23.1336 42.1442L22.8665 41.9569L22.3357 41.5822C20.9447 40.5415 19.7444 39.258 18.7592 37.8253C18.4991 37.475 18.2944 37.0899 18.0654 36.7222C17.9475 36.5383 17.8573 36.3406 17.7567 36.1463L17.4618 35.5636L17.2086 34.9634C17.1253 34.7622 17.0317 34.5645 16.9658 34.3564L16.7542 33.7389C16.7195 33.6348 16.6813 33.5342 16.6501 33.4301L16.5668 33.1145L16.4003 32.4831C16.3448 32.2715 16.3136 32.0564 16.272 31.8413C16.2338 31.6263 16.1853 31.4147 16.154 31.1961L16.0777 30.5474C16.0118 30.1138 16.0118 29.6767 15.9944 29.2431L15.9841 28.917L15.991 28.5909L16.0048 27.9388C16.0638 26.2008 16.3344 24.4732 16.768 22.7908C17.2086 21.1083 17.8157 19.4675 18.6101 17.9204C19.4079 16.3732 20.3758 14.9127 21.5101 13.5876L21.9541 13.1054C22.1033 12.9424 22.249 12.7828 22.412 12.6371L22.8873 12.1896L23.1267 11.9676L23.3764 11.756C23.7094 11.475 24.0321 11.1836 24.3859 10.9269L24.9028 10.5314C25.0762 10.3996 25.2601 10.2817 25.437 10.1568C26.8697 9.16813 28.4099 8.33904 30.023 7.69034C31.6361 7.03817 33.322 6.5768 35.0322 6.28541C35.889 6.14318 36.7493 6.03217 37.6166 5.97667C38.0502 5.95238 38.4838 5.9177 38.9174 5.9177C39.3511 5.91076 39.7847 5.90035 40.2183 5.9177C43.6873 6.00095 47.1354 6.78147 50.2783 8.23844C51.8498 8.96345 53.338 9.85845 54.7186 10.8957C55.4089 11.4126 56.0715 11.9676 56.7029 12.5538C57.3342 13.1436 57.9309 13.7645 58.4963 14.4132C56.1513 11.8947 53.3137 9.83764 50.1673 8.4778C47.0383 7.08674 43.6214 6.36519 40.2079 6.3305C36.7979 6.31663 33.3601 6.84391 30.2034 8.14478C28.625 8.78654 27.1195 9.60521 25.7249 10.58C25.5515 10.7049 25.3711 10.8194 25.2046 10.9477L24.6981 11.3397C24.3547 11.5929 24.039 11.8809 23.7164 12.1549L23.4736 12.3631L23.2411 12.5816L22.7798 13.0187C22.6202 13.1609 22.4814 13.317 22.3392 13.4766L21.909 13.9449C20.799 15.2284 19.845 16.6507 19.0576 18.1597C18.2701 19.6687 17.67 21.2748 17.2329 22.9191C16.7993 24.5669 16.5287 26.2598 16.4628 27.963C16.3865 29.6663 16.5287 31.3696 16.9623 33.0139L17.0386 33.3226C17.0663 33.4267 17.1045 33.5238 17.1357 33.6279L17.3335 34.2349C17.3925 34.4396 17.4861 34.6304 17.5624 34.8316L17.8018 35.4213L18.0828 35.9937C18.1799 36.1845 18.2632 36.3788 18.3742 36.5592C18.5927 36.9234 18.787 37.305 19.0367 37.6484C19.9803 39.0638 21.1424 40.3403 22.4953 41.388L23.0087 41.7696L23.2654 41.9604L23.536 42.1338L24.0772 42.4807C24.2575 42.5952 24.4483 42.6888 24.6357 42.7964C24.823 42.897 25.0103 43.0045 25.2011 43.1016C25.3919 43.1953 25.5862 43.289 25.7804 43.3757C26.1724 43.5491 26.5679 43.7122 26.9737 43.8509C28.5903 44.4164 30.304 44.7217 32.0246 44.7494L32.0211 44.7355Z" fill="#081735"/>
<path d="M32.0212 44.7354C30.2104 44.7597 28.3892 44.5064 26.6547 43.9618C24.9168 43.4241 23.2725 42.5916 21.7808 41.5439C20.2961 40.4859 18.9709 39.1954 17.8782 37.7315C16.7924 36.2607 15.9321 34.6199 15.3458 32.8854C14.7561 31.1509 14.4439 29.3193 14.43 27.4842C14.4127 25.656 14.6243 23.8279 15.0163 22.0414C15.4048 20.2548 16.0084 18.5134 16.7959 16.8622C17.5764 15.2075 18.5754 13.6499 19.7653 12.2519C19.9075 12.0715 20.0706 11.9085 20.2267 11.7385C20.3863 11.572 20.5354 11.3951 20.7054 11.2424L21.2154 10.7811C21.3853 10.6284 21.5518 10.4689 21.7322 10.3301C22.0895 10.0456 22.433 9.74037 22.8076 9.47673L23.3626 9.07086C23.5465 8.93557 23.7442 8.81763 23.9315 8.68927C25.4614 7.68327 27.1057 6.85072 28.8332 6.24018C30.5573 5.62617 32.3473 5.20989 34.1581 4.974C35.9689 4.73464 37.7971 4.66179 39.6183 4.7728C43.2607 4.98094 46.8546 5.94532 50.105 7.58961C51.725 8.41869 53.2583 9.41082 54.6667 10.5625C55.3709 11.1349 56.0473 11.742 56.6856 12.3872C57.3239 13.0324 57.9275 13.7089 58.4964 14.4131C56.141 11.6657 53.2409 9.38654 49.9905 7.8255C46.7505 6.24365 43.1913 5.34171 39.6009 5.18561C36.014 5.04685 32.3785 5.48047 29.0032 6.70155C27.3173 7.30862 25.7112 8.13077 24.2195 9.11943C24.0356 9.24431 23.8414 9.36226 23.6645 9.49408L23.1233 9.89301C22.7556 10.1497 22.4226 10.4515 22.0757 10.7325C21.8987 10.8713 21.7392 11.0239 21.5727 11.1765L21.0801 11.6275C20.9135 11.7767 20.7748 11.9501 20.6187 12.1097C20.4695 12.2727 20.3134 12.4323 20.1747 12.6057C19.0126 13.9586 18.0308 15.4746 17.2607 17.0911C16.4837 18.7042 15.8835 20.404 15.495 22.1558C15.103 23.9042 14.888 25.6977 14.8984 27.4876C14.9122 29.2742 15.1897 31.0607 15.7413 32.7605C16.2894 34.4638 17.1081 36.0803 18.1557 37.5373C19.2068 38.9908 20.4938 40.2708 21.9404 41.3393C23.3835 42.4077 24.9931 43.2646 26.7033 43.8369C28.4135 44.4093 30.2174 44.7111 32.0282 44.7423L32.0212 44.7354Z" fill="#081735"/>
<path d="M32.0212 44.7357C28.2192 44.8016 24.3894 43.6603 21.2257 41.5026C18.062 39.3483 15.5609 36.2228 14.1629 32.6393C13.4552 30.8528 13.0458 28.9483 12.9244 27.03L12.8967 26.3085C12.8898 26.0691 12.8724 25.8263 12.8828 25.5869C12.8932 25.1082 12.8967 24.626 12.9383 24.1473C12.9904 23.1898 13.1361 22.2393 13.2956 21.2923C13.6564 19.4087 14.2183 17.5597 14.9954 15.8009C15.7863 14.0526 16.7681 12.3771 18.0239 10.9062C18.3257 10.5281 18.6725 10.1881 19.0056 9.83776C19.3663 9.51861 19.7271 9.196 20.0983 8.89073L20.6637 8.4467L20.9482 8.22469L21.243 8.01655L21.8328 7.60027C22.0305 7.46151 22.2386 7.34357 22.4398 7.21175C23.2481 6.6914 24.1049 6.25084 24.9722 5.83456C25.1907 5.73396 25.4127 5.64377 25.6348 5.55011C25.8568 5.45991 26.0753 5.35585 26.3008 5.27606C26.7518 5.11302 27.1993 4.9361 27.6606 4.80081C29.4923 4.22149 31.3829 3.85031 33.2908 3.68033C33.7661 3.6387 34.2447 3.59361 34.7235 3.57626L35.4416 3.54157L36.1596 3.53116C36.6383 3.52076 37.1171 3.5381 37.5958 3.54851C37.8351 3.55892 38.0745 3.57626 38.3139 3.58667C38.5532 3.59707 38.7926 3.61789 39.0285 3.64217C42.8443 3.98213 46.5804 5.11302 49.928 6.95504C53.2721 8.80054 56.2138 11.3572 58.4964 14.3995C56.1201 11.4335 53.1611 8.9393 49.8031 7.18746C46.4625 5.41135 42.7576 4.33943 38.9938 4.05498C38.7579 4.03417 38.522 4.01682 38.2896 4.00988C38.0537 3.99948 37.8178 3.9856 37.5819 3.97866C37.1102 3.97519 36.6383 3.96132 36.1666 3.97866L35.4589 3.99254L34.7512 4.0307C34.2795 4.04804 33.8111 4.09661 33.3393 4.13823C31.4626 4.31515 29.6033 4.6898 27.8133 5.26218C27.3623 5.394 26.9252 5.57092 26.4846 5.73396C26.2626 5.81028 26.0511 5.91435 25.8325 6.00454C25.6174 6.09821 25.3989 6.1884 25.1873 6.28553C24.3408 6.69487 23.5048 7.12849 22.7173 7.6419C22.5196 7.77025 22.3184 7.8882 22.1242 8.02349L21.5483 8.43283L21.2604 8.6375L20.9829 8.85604L20.4313 9.29313C20.0705 9.59146 19.7236 9.90714 19.3732 10.2159C19.0576 10.5558 18.7246 10.8819 18.4332 11.2496C17.2121 12.6684 16.2443 14.3023 15.4637 16.0091C14.6971 17.7262 14.1351 19.5335 13.7744 21.379C13.6113 22.3053 13.4691 23.2384 13.4136 24.1785C13.3685 24.6468 13.365 25.1186 13.3511 25.5869C13.3372 25.8228 13.3546 26.0552 13.3615 26.2911L13.3858 26.9953C13.5003 28.8686 13.8784 30.7314 14.5445 32.4902C15.8661 36.0112 18.2805 39.1159 21.3714 41.284C22.9081 42.3768 24.6218 43.2336 26.4222 43.8129C28.2261 44.3957 30.1167 44.6975 32.0177 44.7322L32.0212 44.7357Z" fill="#081735"/>
<path d="M32.021 44.7357C28.0352 44.8051 24.0319 43.643 20.674 41.4541C17.3056 39.279 14.6172 36.0668 13.0214 32.3792C12.2201 30.5372 11.6928 28.5703 11.4743 26.5687C11.2557 24.5671 11.3043 22.5412 11.62 20.5535L11.7414 19.8111C11.783 19.5649 11.842 19.3186 11.8905 19.0723C11.9842 18.5797 12.123 18.094 12.2444 17.6083C12.5254 16.644 12.8306 15.6831 13.2261 14.7569C13.4065 14.2885 13.6354 13.8376 13.8436 13.3797L14.1939 12.7102L14.3709 12.3771L14.5651 12.0511C15.0646 11.1734 15.6509 10.3478 16.2927 9.56726C16.4592 9.37647 16.6188 9.17874 16.7887 8.99141L17.323 8.44332C17.4097 8.34965 17.5068 8.2664 17.6039 8.18661L17.8954 7.94378C18.0896 7.78421 18.2804 7.61423 18.4781 7.45813C19.276 6.84759 20.0912 6.25092 20.9654 5.74792C21.8257 5.22064 22.7346 4.78355 23.6573 4.38115C24.1256 4.20076 24.587 3.99609 25.0692 3.84345C25.3085 3.76367 25.5444 3.67694 25.7838 3.6041L26.5088 3.39596L26.8731 3.29189L27.2408 3.20516L27.9727 3.03171L28.7116 2.88949C28.9579 2.84092 29.2042 2.79582 29.454 2.76114L30.1998 2.65013C30.4496 2.61544 30.6993 2.59462 30.9456 2.5634C31.4417 2.50096 31.9447 2.47321 32.4442 2.43505C34.4423 2.30323 36.4544 2.32404 38.4456 2.55993C42.4279 3.02478 46.3063 4.33258 49.7544 6.36193C53.1956 8.40169 56.2032 11.1561 58.5066 14.4065C57.3064 12.8177 55.95 11.3503 54.4618 10.0356C52.9736 8.72083 51.3467 7.5622 49.6226 6.58741C46.1779 4.62397 42.3343 3.37861 38.4005 2.96927C38.1542 2.93805 37.9079 2.92418 37.6616 2.90336C37.4153 2.88255 37.169 2.86173 36.9227 2.85133L36.1838 2.81664L35.4414 2.8097C34.9488 2.79929 34.4528 2.82011 33.9567 2.82358C33.4641 2.84786 32.968 2.86174 32.4754 2.89642C31.9828 2.93458 31.4902 2.9658 30.9976 3.03171C30.7513 3.06294 30.505 3.08375 30.2622 3.11844L29.5303 3.22945C29.284 3.26414 29.0446 3.30923 28.8018 3.3578L28.0768 3.50003L27.3587 3.67347L26.9979 3.7602L26.6441 3.8608L25.9329 4.06894C25.6971 4.14526 25.4681 4.22851 25.2322 4.3083C24.7639 4.45746 24.3129 4.65866 23.855 4.83905C22.9566 5.23798 22.0685 5.66813 21.2325 6.18501C20.3826 6.68108 19.5882 7.26386 18.8077 7.86746C18.6134 8.0201 18.433 8.18314 18.2457 8.33925L17.9647 8.57861C17.8711 8.65839 17.7774 8.73471 17.6941 8.8249L17.1877 9.34872C17.0246 9.52911 16.8685 9.7199 16.709 9.90375C16.0845 10.6565 15.5122 11.4579 15.023 12.3112L14.8322 12.6269L14.6588 12.953L14.3154 13.6052C14.1107 14.0526 13.8852 14.4897 13.7048 14.9511C13.3128 15.8565 13.011 16.7931 12.73 17.7402C12.6086 18.2189 12.4699 18.6907 12.3762 19.1763C12.3276 19.4192 12.2686 19.6585 12.2235 19.9013L12.1021 20.6298C11.7865 22.5759 11.731 24.5636 11.9356 26.5201C12.1507 28.4767 12.6398 30.4019 13.403 32.2197C14.9224 35.8552 17.5276 39.0466 20.8232 41.239L21.4476 41.6379C21.6557 41.7698 21.8604 41.912 22.0824 42.023L22.7346 42.3803L23.0606 42.5572C23.1716 42.6162 23.2827 42.6648 23.3937 42.7203C24.2852 43.1539 25.2114 43.5112 26.1584 43.8095C28.0525 44.3992 30.0368 44.708 32.028 44.7392L32.021 44.7357Z" fill="#081735"/>
<path d="M32.021 44.7355C27.8582 44.798 23.6642 43.6358 20.1294 41.388C16.5841 39.1609 13.684 35.9035 11.8871 32.105C10.9851 30.2074 10.3573 28.1781 10.0416 26.0967C9.96527 25.5764 9.92016 25.0525 9.85772 24.5287C9.84037 24.3969 9.83345 24.2686 9.82998 24.1367L9.81609 23.7413L9.78488 22.9538C9.77448 21.9027 9.82304 20.8516 9.95486 19.8075C10.0069 19.2836 10.104 18.7668 10.1873 18.2499C10.2324 17.9897 10.2914 17.7365 10.3434 17.4763C10.3954 17.2196 10.4509 16.9629 10.5203 16.7097L10.7145 15.9465L10.9435 15.1937C10.9817 15.0688 11.0163 14.9405 11.0614 14.8156L11.1933 14.4444C11.2835 14.1981 11.3633 13.9484 11.4604 13.7021C11.8385 12.7203 12.286 11.7664 12.789 10.8401C13.3093 9.92434 13.8922 9.03975 14.5547 8.21414L15.0751 7.614C15.2485 7.41627 15.4462 7.23242 15.6336 7.04162C15.814 6.84389 16.0256 6.68432 16.2302 6.51781L16.8442 6.01828C17.6907 5.39386 18.551 4.78332 19.4772 4.28032C21.3053 3.22922 23.3035 2.50073 25.3432 2.0012C27.3934 1.52942 29.4852 1.28312 31.5735 1.21721L32.3575 1.18946L33.1415 1.18252C33.6618 1.17212 34.1891 1.19293 34.7129 1.20334C35.7606 1.26231 36.8047 1.3421 37.842 1.4982C41.9909 2.1018 46.0045 3.56918 49.5498 5.78239C51.3224 6.88899 52.9701 8.18986 54.4757 9.63642C55.9777 11.083 57.3272 12.6856 58.4927 14.4097C56.0645 11.0309 52.9702 8.13435 49.411 6.0044C45.8657 3.85364 41.8798 2.45217 37.783 1.90407C36.7596 1.76184 35.7259 1.69246 34.6956 1.64737C33.6653 1.62655 32.6246 1.62308 31.5909 1.67512C29.5234 1.75144 27.4628 2.00467 25.4542 2.47298C23.4561 2.96905 21.5065 3.69059 19.7269 4.72435C18.825 5.22041 17.9855 5.82054 17.1599 6.43108L16.5667 6.91674C16.369 7.07978 16.1643 7.23589 15.9943 7.42321C15.8174 7.60707 15.6336 7.77705 15.4671 7.97131L14.9675 8.55063C14.3258 9.34849 13.7569 10.2019 13.2469 11.0934C12.7543 11.9953 12.3138 12.925 11.9391 13.8859C11.842 14.1253 11.7622 14.3681 11.6755 14.6109L11.5436 14.9752C11.502 15.0966 11.4673 15.2215 11.4292 15.3429L11.2037 16.0818L11.0094 16.8311C10.94 17.0808 10.8845 17.3306 10.8325 17.5838C10.7804 17.8371 10.7215 18.0868 10.6764 18.3401C10.5931 18.85 10.496 19.3565 10.444 19.8664C10.3087 20.8898 10.2601 21.9201 10.2636 22.9503L10.2913 23.7205L10.3052 24.1055C10.3052 24.2339 10.3122 24.3622 10.3295 24.4906C10.3885 25.0005 10.4301 25.5174 10.5029 26.0239C10.8082 28.0601 11.4014 30.0548 12.2617 31.9281C13.9788 35.678 16.7957 38.9215 20.2716 41.1659L20.9272 41.5822L21.0903 41.6863L21.2602 41.7799L21.6002 41.9673L22.2836 42.3385C22.5091 42.4633 22.7484 42.5674 22.9808 42.6819C23.9209 43.1155 24.8922 43.4902 25.8844 43.7885C27.8721 44.3851 29.9431 44.7008 32.0245 44.732L32.021 44.7355Z" fill="#081735"/>
<path d="M32.0211 44.7355C27.6779 44.7979 23.3036 43.6115 19.5814 41.322C15.8522 39.0498 12.7648 35.7196 10.784 31.8136C9.78844 29.8605 9.07032 27.7687 8.66445 25.6145L8.51531 24.8062C8.48756 24.6709 8.47367 24.5356 8.45632 24.4004L8.41123 23.991C8.35225 23.4464 8.27593 22.9018 8.27246 22.3537C8.21349 21.2575 8.2239 20.1578 8.3245 19.0651C8.52223 16.8831 8.98362 14.7219 9.72251 12.6544C10.0902 11.6207 10.5204 10.6077 11.0407 9.6364L11.2315 9.27216L11.4396 8.91485L11.6478 8.55755C11.7172 8.43613 11.7866 8.32166 11.8664 8.20718L12.3242 7.52032L12.8238 6.86122C12.9036 6.75021 12.9972 6.64614 13.0874 6.54207L13.3615 6.22987C13.5384 6.01826 13.7431 5.824 13.9408 5.62973L14.2391 5.33834L14.5652 5.08163L15.2174 4.57169C16.1089 3.9334 17.0212 3.31246 17.9995 2.80946L18.3603 2.61173C18.4817 2.54928 18.6065 2.49378 18.7314 2.43481L19.4773 2.08444C19.9872 1.88324 20.4902 1.65776 21.014 1.49125C22.0478 1.12006 23.1162 0.849484 24.1881 0.634408C26.3389 0.204255 28.5278 0.0550904 30.7063 0.00999374C32.8814 -0.0351029 35.0842 0.0654969 37.2384 0.454022C41.5503 1.17557 45.6992 2.81639 49.3451 5.21346C52.9841 7.61746 56.127 10.7603 58.4859 14.4097C53.5946 7.22199 45.7201 2.17116 37.1725 0.856422L36.7736 0.790513L36.3712 0.738478L35.5698 0.637877C35.0322 0.59625 34.4979 0.530339 33.9568 0.512994C33.6862 0.502587 33.4191 0.481772 33.1485 0.471365L32.3402 0.457489C31.8025 0.447082 31.2579 0.46096 30.7168 0.467898C28.5556 0.519933 26.3944 0.676036 24.2853 1.10619C23.2307 1.32127 22.19 1.59185 21.1805 1.95609C20.6671 2.11913 20.1815 2.34461 19.6819 2.54234L18.9534 2.88577C18.832 2.94474 18.7106 3.00025 18.5927 3.05922L18.2389 3.25349C17.2849 3.74608 16.3968 4.35662 15.5296 4.9845L14.9017 5.48057L14.586 5.73033L14.305 6.00785C14.1177 6.19517 13.9269 6.37556 13.7569 6.58023C13.5869 6.7849 13.3996 6.9757 13.2401 7.19077L12.7544 7.82559L12.3069 8.49164C12.2306 8.60264 12.1577 8.71365 12.0918 8.8316L11.8871 9.1785L11.6825 9.52539L11.4951 9.8827C10.9817 10.8263 10.562 11.8149 10.1978 12.8279C9.4658 14.8503 9.00442 16.9698 8.80322 19.1102C8.70262 20.1821 8.68877 21.2575 8.7408 22.3328C8.7408 22.8705 8.81712 23.4048 8.87263 23.939L8.91425 24.3414C8.92813 24.4767 8.94197 24.6085 8.96973 24.7403L9.11197 25.5347C9.50743 27.6473 10.1908 29.7079 11.1448 31.6366C13.0492 35.4976 16.0499 38.8174 19.7132 41.1069C19.9421 41.2492 20.1641 41.4053 20.4 41.5371L21.1111 41.9256C21.3505 42.054 21.5829 42.1893 21.8258 42.3072C22.0686 42.4252 22.3114 42.5466 22.5577 42.6541C23.5429 43.0981 24.5593 43.4797 25.6 43.7815C27.6779 44.3921 29.8426 44.7077 32.0141 44.7424L32.0211 44.7355Z" fill="#081735"/>
<path d="M42.6049 39.0739C41.9319 40.8882 41.0403 42.6261 39.9337 44.2184C39.3891 45.0232 38.7786 45.7759 38.1403 46.5079C37.4916 47.2295 36.8012 47.9163 36.0728 48.5581C33.1449 51.1147 29.5684 52.9324 25.7699 53.8032C21.9714 54.6843 17.9474 54.5837 14.1835 53.5326C13.2469 53.2655 12.3138 52.9394 11.4188 52.5925C10.5134 52.2525 9.60101 51.9126 8.71642 51.4859C7.82836 51.0661 6.98542 50.5354 6.21878 49.9144C5.44866 49.2935 4.7618 48.5858 4.13392 47.8331L4.12698 47.8261L4.12003 47.8157C3.5303 46.9658 3.00305 46.0743 2.54167 45.1481C2.09417 44.2149 1.71256 43.2575 1.38648 42.2758C1.0708 41.294 0.821043 40.2915 0.616374 39.2855C0.418642 38.276 0.279873 37.2561 0.172335 36.2363C0.0821415 35.2129 0.0266446 34.1896 0.00583078 33.1628C-0.0115141 32.1394 0.00932517 31.1091 0.0752357 30.0858C0.207057 28.0356 0.54007 26.0028 1.06389 24.0185C1.5877 22.0343 2.30575 20.1055 3.20074 18.2635C4.09227 16.418 5.16073 14.6592 6.38528 13.0219C7.60983 11.3845 8.99395 9.86164 10.503 8.47752C11.2488 7.77679 12.005 7.08646 12.789 6.42736C13.181 6.09781 13.58 5.77866 13.9928 5.46992C14.1974 5.31382 14.4055 5.16465 14.6172 5.01895L14.9328 4.80041L15.0924 4.69287C15.141 4.65124 15.2138 4.64084 15.3838 4.7796C15.4462 4.9912 15.415 5.05364 15.3595 5.0814L15.2034 5.18894L14.8947 5.40748L14.2807 5.85151L13.0561 6.75691C12.2444 7.36745 11.4396 7.9884 10.6729 8.65791C9.90629 9.32742 9.17434 10.0351 8.51177 10.8052L8.00184 11.3741L7.51964 11.9638C7.36007 12.1616 7.19703 12.3558 7.04092 12.557L6.58647 13.1676C5.37926 14.8015 4.33163 16.5498 3.46092 18.3849C2.59714 20.22 1.91032 22.1418 1.41773 24.1087C0.925133 26.0756 0.623295 28.0876 0.512288 30.1101C0.460253 31.123 0.453327 32.1359 0.481079 33.1489C0.5123 34.1618 0.578234 35.1748 0.678834 36.1842C0.786372 37.1902 0.928571 38.1928 1.1263 39.1849C1.33097 40.1736 1.5773 41.1553 1.8895 42.1127C2.20865 43.0701 2.5833 44.0068 3.02386 44.9122C3.47483 45.8106 3.98821 46.6779 4.55365 47.5104L4.53981 47.4931C5.14688 48.2285 5.80942 48.9154 6.54484 49.5155C7.27679 50.1156 8.07813 50.6256 8.93497 51.0384C9.78834 51.4581 10.6903 51.7981 11.5922 52.145C12.4976 52.5023 13.3891 52.818 14.3119 53.0886C17.9959 54.1431 21.9402 54.2541 25.6901 53.4424C29.4436 52.6341 32.9923 50.8788 35.9271 48.3881C38.8722 45.9078 41.1756 42.6712 42.6049 39.0739Z" fill="#081735"/>
<path d="M42.605 39.074C41.2417 42.536 38.9383 45.6338 36.0105 47.965C34.5466 49.1305 32.9162 50.088 31.1956 50.8269C29.4784 51.5727 27.6676 52.1139 25.8221 52.4365C23.9732 52.7556 22.086 52.8736 20.2128 52.7244C18.3395 52.5856 16.4836 52.2179 14.6971 51.6386L14.0276 51.4201C13.8056 51.3403 13.5905 51.2501 13.372 51.1668L12.7163 50.9101L12.0746 50.6361C11.2177 50.2718 10.3574 49.8972 9.52487 49.4462C8.69232 48.9987 7.90139 48.461 7.18332 47.8436C6.46177 47.2261 5.80959 46.5358 5.21639 45.8038L5.20945 45.7969L5.2025 45.7899C4.65094 44.9851 4.15834 44.1422 3.72472 43.268C3.3015 42.3903 2.92687 41.4884 2.61813 40.5657C2.00412 38.7167 1.6156 36.8053 1.40052 34.88C1.29298 33.9156 1.22361 32.9512 1.19586 31.9834C1.17505 31.5012 1.17502 31.0156 1.17155 30.5334L1.20624 29.0799C1.29643 27.1442 1.57048 25.2154 2.03533 23.3318C2.9546 19.5645 4.61627 15.9914 6.87457 12.8555C7.16597 12.4704 7.43998 12.0715 7.75219 11.7038C8.05746 11.3291 8.35581 10.9475 8.68537 10.5937C9.31672 9.86175 9.99662 9.17142 10.7078 8.52272C12.13 7.21839 13.6321 6.00772 15.2209 4.91846C14.4404 5.4839 13.6876 6.08403 12.9522 6.70151C12.2168 7.32246 11.4987 7.96075 10.8049 8.62679C10.1076 9.28937 9.45199 9.98663 8.84145 10.7255C8.52231 11.0828 8.23786 11.4679 7.93953 11.846C7.63773 12.2172 7.37411 12.6196 7.09312 13.0081C4.89726 16.1475 3.29805 19.7032 2.44121 23.4289C2.01106 25.2917 1.75436 27.1928 1.67111 29.1007L1.64333 30.5334C1.65027 31.0121 1.6503 31.4908 1.67458 31.9695C1.7058 32.927 1.78212 33.8809 1.88966 34.828C2.1082 36.7255 2.5002 38.6022 3.10727 40.4061C3.41254 41.308 3.78368 42.1857 4.19649 43.039C4.61971 43.8889 5.11231 44.7041 5.6396 45.4916L5.62918 45.4743C6.77394 46.9069 8.15461 48.1419 9.76769 49.0057C10.569 49.4497 11.4154 49.8174 12.2688 50.1851L12.9106 50.4592L13.5524 50.7124C13.7674 50.7957 13.979 50.8859 14.1941 50.9656L14.8497 51.1842C16.5981 51.76 18.4158 52.1243 20.2509 52.27C22.086 52.4157 23.9384 52.3324 25.7597 52.041C27.5809 51.7462 29.3674 51.2362 31.0707 50.5251C32.7774 49.8174 34.3905 48.8912 35.8578 47.7672C38.8065 45.5298 41.1376 42.4944 42.6085 39.0775L42.605 39.074Z" fill="#081735"/>
<path d="M42.6051 39.0739C42.2512 39.8995 41.8419 40.7043 41.377 41.4779C40.9122 42.2515 40.3884 42.9869 39.8264 43.6946C38.6955 45.103 37.3669 46.3553 35.8857 47.4029C35.1468 47.9267 34.3627 48.3916 33.5545 48.8009C32.7462 49.2172 31.9033 49.5537 31.0534 49.8624C29.3432 50.466 27.5636 50.8754 25.7597 51.0766L25.4232 51.1182L25.0833 51.1425L24.4033 51.191C23.9489 51.2153 23.4945 51.2118 23.04 51.2222C22.5856 51.2084 22.1311 51.1945 21.6767 51.1633L20.9968 51.1008C20.7713 51.08 20.5424 51.0627 20.3204 51.0245C18.52 50.7852 16.7438 50.3377 15.044 49.689C14.8324 49.6057 14.6139 49.5363 14.4092 49.4427L13.7848 49.1686C13.365 48.9882 12.9627 48.794 12.5533 48.5962C11.7416 48.2042 10.9298 47.7845 10.1563 47.3023C9.38267 46.8167 8.65071 46.2547 7.97772 45.6303C7.64817 45.3146 7.32555 44.9885 7.02028 44.6451C6.87112 44.4716 6.71504 44.3051 6.57281 44.1247C6.42712 43.9443 6.27099 43.7709 6.15651 43.5732L5.78188 42.9938C5.66393 42.7996 5.55293 42.5984 5.43845 42.4007L5.26848 42.1023L5.11235 41.797C5.00828 41.5924 4.90073 41.3946 4.8036 41.1865C4.41161 40.3644 4.07166 39.5179 3.7768 38.6576C3.20442 36.9301 2.81589 35.147 2.60428 33.3466C2.54184 32.8957 2.51061 32.4447 2.46552 31.9937C2.43777 31.5428 2.39961 31.0883 2.38574 30.6374C2.34064 29.732 2.34757 28.8265 2.37532 27.9211C2.43776 26.1069 2.67714 24.303 3.08301 22.5373C3.89475 19.0059 5.36906 15.6271 7.41575 12.6472C7.68286 12.283 7.93612 11.9084 8.21363 11.5511L8.63337 11.0203C8.77213 10.8434 8.91088 10.663 9.06004 10.4965C9.35838 10.1565 9.63939 9.80616 9.95159 9.4766C10.2603 9.14705 10.5795 8.82444 10.9021 8.51223C12.203 7.2634 13.5905 6.10823 15.0544 5.05713C14.3398 5.60176 13.646 6.17761 12.9696 6.7708C12.2931 7.364 11.6341 7.97454 11.0027 8.61283C10.687 8.93197 10.3783 9.25806 10.0799 9.59108C9.77814 9.9241 9.5041 10.2814 9.21617 10.6214C9.07048 10.7913 8.93863 10.9717 8.80334 11.1521L8.40097 11.6898C8.13386 12.0506 7.891 12.4252 7.6343 12.7929C5.64658 15.7763 4.23472 19.1308 3.48542 22.624C3.11077 24.3724 2.89569 26.152 2.83672 27.935C2.81244 28.8265 2.81242 29.7215 2.85751 30.6165C2.87139 31.064 2.91302 31.5081 2.94424 31.9556C2.98933 32.3996 3.02404 32.8471 3.08648 33.2876C3.30502 35.0603 3.69355 36.8087 4.26247 38.4946C4.55386 39.3341 4.89037 40.1597 5.27542 40.961C5.37255 41.1622 5.48009 41.3565 5.58069 41.5542L5.73331 41.8491L5.89981 42.137C6.01082 42.3278 6.12182 42.5221 6.23629 42.7094L6.59361 43.261C6.70461 43.4517 6.85031 43.6148 6.9856 43.7848C7.12089 43.9548 7.27006 44.1213 7.41575 44.2878C7.70715 44.6208 8.01936 44.9365 8.33504 45.2417C8.9768 45.8488 9.67754 46.3865 10.4268 46.8618C11.1761 47.3335 11.9671 47.7463 12.7719 48.1418C13.1743 48.3395 13.5801 48.5373 13.986 48.7142L14.5966 48.9848C14.7978 49.0784 15.0093 49.1478 15.2175 49.2311C18.5408 50.5146 22.1624 51.0176 25.7146 50.6672C27.4907 50.4938 29.246 50.1156 30.9389 49.5433C31.7819 49.2519 32.6179 48.9293 33.4192 48.5338C34.2206 48.1418 34.9941 47.6908 35.7365 47.1878C38.7059 45.1897 41.0857 42.3347 42.6051 39.0739Z" fill="#081735"/>
<path d="M42.6049 39.0738C41.8903 40.6279 40.9502 42.0814 39.8159 43.3719C38.6884 44.6658 37.3737 45.8036 35.9202 46.7264C35.1917 47.1878 34.4286 47.5902 33.6376 47.9371C33.2422 48.1105 32.8397 48.2666 32.4339 48.4123C32.0245 48.5476 31.6152 48.6759 31.2024 48.8043C29.5477 49.2795 27.8375 49.5709 26.1169 49.675C22.6722 49.8901 19.1789 49.2934 15.9875 47.9683C15.1896 47.6387 14.4091 47.2606 13.6494 46.8547C12.8931 46.4489 12.1404 46.0222 11.4154 45.5504C10.6903 45.0751 10 44.5409 9.35824 43.9512C8.71648 43.3615 8.13717 42.7162 7.59601 42.0329L7.39483 41.7727C7.32892 41.686 7.27687 41.5888 7.21443 41.4986L6.86406 40.9436C6.65246 40.5655 6.42348 40.1978 6.23616 39.8092C5.83029 39.0461 5.49036 38.2447 5.18162 37.4399C4.87288 36.6317 4.62659 35.8026 4.40457 34.9666C4.1999 34.1271 4.01605 33.2841 3.89117 32.4307C3.85301 32.2191 3.82872 32.004 3.80097 31.7924C3.77322 31.5774 3.74196 31.3658 3.72115 31.1507C3.67952 30.7205 3.63097 30.2938 3.60669 29.8637C3.54078 29.0034 3.52344 28.1431 3.52344 27.2828C3.53038 25.5587 3.70382 23.8346 4.04031 22.1452C4.70635 18.7664 6.00722 15.516 7.85271 12.6194C8.31409 11.8944 8.8171 11.1971 9.34092 10.5207C9.60456 10.1842 9.88554 9.85811 10.1561 9.52508C10.4371 9.199 10.7285 8.88332 11.0268 8.57805C12.2236 7.35003 13.521 6.22956 14.8843 5.1958C14.2183 5.73349 13.5731 6.29546 12.9487 6.87478C12.3208 7.4541 11.7102 8.05077 11.1309 8.67518C10.843 8.98739 10.5585 9.30654 10.2879 9.63609C10.0278 9.97258 9.75718 10.3021 9.50048 10.6456C8.99747 11.3324 8.51529 12.0332 8.07473 12.7616C6.29168 15.6617 5.0498 18.8844 4.44272 22.225C3.83565 25.5622 3.85297 29.0069 4.36985 32.3579C4.4982 33.1974 4.68209 34.023 4.88676 34.8451C5.10878 35.6603 5.35506 36.4721 5.65687 37.2595C5.96214 38.047 6.29516 38.8241 6.69756 39.5699C6.88488 39.948 7.11038 40.3053 7.31505 40.673L7.65153 41.2003C7.7105 41.287 7.76253 41.3772 7.82498 41.4605L8.01922 41.7068C8.53609 42.3659 9.10154 42.9972 9.71555 43.5696C10.333 44.142 10.9956 44.6589 11.6964 45.1237C12.4006 45.5886 13.136 46.0118 13.8853 46.4176C14.6346 46.82 15.3908 47.1912 16.1713 47.5208C17.7323 48.1764 19.3628 48.6621 21.0313 48.9465C22.6999 49.2344 24.3963 49.3455 26.0891 49.2691C27.782 49.1928 29.4679 48.9292 31.1053 48.4851C31.5111 48.3637 31.9205 48.2423 32.3229 48.114C32.7253 47.9787 33.1207 47.8295 33.5127 47.663C34.2932 47.3334 35.0495 46.9449 35.7745 46.5044C38.685 44.7525 41.0612 42.13 42.5945 39.0738H42.6049Z" fill="#081735"/>
<path d="M42.605 39.074C41.88 40.5275 40.9399 41.8735 39.8124 43.0529C38.692 44.2359 37.3946 45.2557 35.9688 46.0605C34.5431 46.8653 32.9821 47.4308 31.3829 47.7673C29.7871 48.1211 28.1532 48.3119 26.5159 48.3223C23.2412 48.3535 19.963 47.6459 16.9693 46.3068C16.8756 46.2652 16.7819 46.227 16.6882 46.182L16.4142 46.0467L15.8626 45.7726C15.4949 45.5922 15.1446 45.3772 14.7838 45.1829C14.0761 44.777 13.3823 44.3399 12.7093 43.8716C11.3599 42.9385 10.125 41.8145 9.09122 40.531C8.96287 40.368 8.83448 40.2118 8.7096 40.0419C8.58819 39.8754 8.45293 39.7123 8.35233 39.5319L8.02275 39.0046C7.91521 38.8277 7.81808 38.6473 7.71748 38.4704C7.50934 38.1166 7.33588 37.7454 7.14509 37.3812L6.88839 36.8227L6.76004 36.5417L6.6421 36.2572C6.31602 35.5044 6.05932 34.7239 5.81649 33.9399C5.58753 33.1525 5.38983 32.3581 5.23372 31.5533C4.92152 29.9471 4.76191 28.3098 4.72028 26.6794C4.72028 26.27 4.70293 25.8642 4.72028 25.4548C4.73069 25.0455 4.73069 24.6361 4.76885 24.2303C4.7966 23.8209 4.82438 23.4151 4.87988 23.0092L4.94924 22.3987C4.977 22.1975 5.01169 21.9963 5.04291 21.7916C5.55979 18.562 6.6629 15.4295 8.31761 12.6161C9.15016 11.2112 10.1042 9.88606 11.1761 8.66151C12.2653 7.45084 13.4691 6.35118 14.7283 5.3313C14.1143 5.86205 13.5176 6.41362 12.9418 6.98253C12.3659 7.55144 11.8039 8.1377 11.2801 8.75518C10.2464 9.99707 9.33055 11.3396 8.5431 12.748C6.95084 15.5578 5.9067 18.666 5.44533 21.854C4.99783 25.0385 5.09149 28.3063 5.70897 31.4631C5.86507 32.2505 6.06278 33.0311 6.29173 33.8012C6.53456 34.5678 6.79126 35.3275 7.11041 36.063L7.22491 36.3405L7.34979 36.6145L7.60302 37.1591C7.79034 37.513 7.96032 37.8772 8.16846 38.2207C8.26906 38.3941 8.36619 38.571 8.47026 38.741L8.78942 39.244C8.89002 39.4174 9.0149 39.5701 9.13285 39.7297C9.25079 39.8892 9.37913 40.0419 9.50401 40.2014C10.5031 41.4537 11.686 42.543 13.0007 43.4588C13.6564 43.9202 14.3398 44.3503 15.0336 44.7562C15.3839 44.9505 15.7273 45.1586 16.0881 45.339L16.6258 45.6096L16.8964 45.7449C16.9866 45.7865 17.0802 45.8246 17.1704 45.8663C20.0948 47.2018 23.3001 47.8852 26.5159 47.9164C28.1255 47.9338 29.7351 47.7673 31.3135 47.4447C32.8953 47.1394 34.4251 46.6052 35.844 45.8385C38.692 44.3261 41.0544 41.929 42.605 39.0775V39.074Z" fill="#081735"/>
<path d="M42.605 39.0735C41.8731 40.4264 40.9295 41.6717 39.816 42.7436C38.7059 43.819 37.4258 44.7279 36.0348 45.4148C34.6437 46.0981 33.1313 46.5595 31.5945 46.7677C30.0612 47.0001 28.5071 47.0833 26.9565 47.0105C23.8518 46.8752 20.7817 46.0704 17.9892 44.7071C16.5912 44.0272 15.2626 43.205 14.0172 42.2788C13.3928 41.814 12.7892 41.3214 12.2168 40.7906C11.6479 40.2599 11.1102 39.6909 10.6072 39.0908C10.3574 38.7925 10.1215 38.4803 9.88911 38.1681L9.54568 37.6893L9.24041 37.1898C9.13634 37.0233 9.03922 36.8533 8.94555 36.6833L8.66112 36.1734C8.48767 35.823 8.3003 35.4831 8.1442 35.1258C7.80771 34.4216 7.5337 33.6931 7.27005 32.9646C7.02376 32.2257 6.79828 31.4834 6.62136 30.7271C5.90675 27.7022 5.70899 24.5627 6.06976 21.4788C6.4236 18.3949 7.36369 15.3873 8.79984 12.6503C9.52139 11.28 10.3782 9.98958 11.3357 8.77891C12.3035 7.57517 13.4066 6.49285 14.5653 5.47644C14.0033 6.00372 13.4587 6.54835 12.9383 7.11033C12.4145 7.6723 11.9115 8.25509 11.4467 8.86563C10.5274 10.0936 9.70873 11.398 9.03228 12.7717C7.6551 15.5052 6.77398 18.4851 6.47912 21.5239L6.4236 22.0928C6.40626 22.2836 6.39933 22.4744 6.38892 22.6652L6.35771 23.2376L6.35077 23.81C6.32995 24.5732 6.36465 25.3363 6.40281 26.0995C6.51035 27.6224 6.72542 29.1383 7.09313 30.6161C7.27005 31.3585 7.49553 32.087 7.74183 32.805C8.002 33.5196 8.27605 34.2308 8.60907 34.9142C8.76171 35.2611 8.94902 35.5941 9.119 35.934L9.39997 36.4301C9.49016 36.5966 9.58732 36.7597 9.68792 36.9192L9.98625 37.4014L10.3158 37.8593C10.5447 38.1646 10.7772 38.4629 11.02 38.7543C11.5022 39.3371 12.0225 39.8921 12.5741 40.4125C13.1291 40.9328 13.7119 41.415 14.3225 41.8764C15.5401 42.7957 16.8375 43.604 18.2008 44.2769C19.5676 44.9499 20.9968 45.4911 22.4711 45.8796C23.9454 46.2647 25.4544 46.511 26.9773 46.6081C28.5002 46.7052 30.0335 46.6462 31.5459 46.4416C33.0619 46.2647 34.5397 45.8345 35.9203 45.1893C38.692 43.9092 41.0405 41.7342 42.605 39.0839V39.0735Z" fill="#081735"/>
<path d="M42.6048 39.0736C41.8659 40.3328 40.9258 41.4741 39.8192 42.4419C38.7196 43.4098 37.4638 44.2111 36.1075 44.787C34.7511 45.3593 33.2941 45.7062 31.8267 45.8103C30.3628 45.9317 28.8885 45.9144 27.4246 45.7617C21.5586 45.1581 15.9908 42.1922 12.1507 37.7102C11.6754 37.1448 11.2349 36.5516 10.8221 35.9411C10.4093 35.3236 10.0485 34.6784 9.70851 34.0262C9.36855 33.3706 9.07022 32.6976 8.7927 32.0142C8.52559 31.3273 8.27584 30.6335 8.07464 29.9224C7.65489 28.5105 7.38086 27.057 7.22129 25.5931C7.05477 24.1292 7.04091 22.6549 7.14151 21.1875C7.33924 18.2528 8.09197 15.3631 9.31305 12.6989C9.93746 11.3703 10.6764 10.1007 11.5228 8.90734C11.946 8.31068 12.4004 7.7383 12.8826 7.18673C13.3648 6.63863 13.8748 6.11482 14.402 5.61182C13.3891 6.65945 12.449 7.77993 11.6408 8.98713C10.836 10.1978 10.1352 11.4779 9.5559 12.8065C8.39379 15.4637 7.69999 18.3256 7.55429 21.2153C7.41207 24.1015 7.71039 27.0189 8.54294 29.7871C8.74414 30.4809 8.99393 31.1574 9.25757 31.8303C9.53509 32.4964 9.82995 33.1555 10.1664 33.7938C10.5029 34.4321 10.8602 35.06 11.2627 35.6531C11.6685 36.2463 12.1021 36.8222 12.5669 37.3738C13.4897 38.4769 14.5339 39.4829 15.6613 40.3848C16.7887 41.2833 17.9924 42.0881 19.2656 42.7715C21.8083 44.1417 24.6113 45.009 27.4801 45.3663C28.9163 45.5432 30.3663 45.5814 31.8129 45.4877C33.2525 45.4079 34.6782 45.0922 36.0207 44.558C38.7161 43.5034 41.0403 41.5435 42.6152 39.0874L42.6048 39.0736Z" fill="#081735"/>
<path d="M42.6049 39.0739C41.8487 40.2291 40.9259 41.2906 39.8263 42.144C39.2886 42.5845 38.6989 42.9592 38.0953 43.3061C37.7865 43.4657 37.4812 43.6391 37.1621 43.7744C37.0025 43.8438 36.8464 43.9201 36.6834 43.986L36.1943 44.1699C36.0312 44.2358 35.8647 44.2843 35.6982 44.3329C35.5317 44.3815 35.3652 44.437 35.1952 44.4821C34.8552 44.5584 34.5187 44.6555 34.1718 44.7041L33.655 44.7908L33.1346 44.8463L32.8744 44.8741L32.6108 44.8845L32.087 44.9053C30.6959 44.9157 29.3014 44.8116 27.9277 44.5827C26.554 44.3572 25.1941 44.0138 23.8828 43.535C22.5716 43.0563 21.302 42.4666 20.0947 41.7659C17.6769 40.3679 15.5018 38.5501 13.7084 36.4028C11.9288 34.2451 10.5343 31.7787 9.6011 29.1457C9.13279 27.831 8.78936 26.4711 8.56735 25.094C8.49797 24.7505 8.47021 24.4036 8.42511 24.0567C8.4043 23.8833 8.38 23.7098 8.36612 23.5364L8.32797 23.016L8.29329 22.4957C8.28288 22.3223 8.28634 22.1488 8.2794 21.9719L8.27245 21.4481C8.26898 21.2746 8.26898 21.1012 8.27245 20.9243C8.32449 18.1387 8.86912 15.3635 9.88206 12.7756C10.3955 11.4852 11.0164 10.2363 11.7518 9.06036C12.1126 8.47063 12.5012 7.89478 12.9105 7.33628C13.3233 6.78124 13.7708 6.25049 14.2391 5.74402C10.6904 9.98311 8.67488 15.4433 8.68528 20.9312C8.70263 23.6682 9.11889 26.4122 10.059 28.9862C10.9852 31.5601 12.3659 33.9641 14.1177 36.0663C17.5971 40.2846 22.5959 43.2298 27.9971 44.1803C29.343 44.4266 30.7133 44.5549 32.087 44.5688C33.4503 44.5619 34.8171 44.3641 36.1145 43.927C38.7266 43.091 41.0196 41.3357 42.6084 39.0774L42.6049 39.0739Z" fill="#081735"/>
<path d="M19.276 32.0146C19.2587 29.7598 19.5605 27.498 20.1849 25.323C20.8128 23.1514 21.7494 21.0665 22.967 19.1551C25.3988 15.3289 28.9649 12.2311 33.0999 10.3405C37.2245 8.42906 41.9353 7.74567 46.4381 8.46375C47.5655 8.6372 48.6721 8.91818 49.7579 9.25467C50.8437 9.59116 51.9052 10.0109 52.9181 10.5208C53.9345 11.0273 54.9197 11.5893 55.8459 12.2415C56.7687 12.8971 57.6533 13.6013 58.472 14.3784C54.9891 11.5199 50.7778 9.5981 46.3583 8.99103C44.1555 8.67536 41.9076 8.65801 39.6979 8.94247C38.5947 9.08123 37.4985 9.29977 36.4231 9.5981C35.3478 9.8999 34.2967 10.2746 33.2768 10.729C29.1938 12.5363 25.6416 15.5439 23.1925 19.3008C21.961 21.1706 20.9966 23.2208 20.341 25.3681C19.6888 27.5154 19.3523 29.7633 19.3315 32.0112H19.2795L19.276 32.0146Z" fill="#081735"/>
<path d="M56.2031 15.8941C54.6282 14.4718 52.8659 13.2612 50.9615 12.3453C50.0144 11.877 49.0258 11.4955 48.0198 11.1798C47.5202 11.0133 47.0034 10.8884 46.4934 10.7566C45.9765 10.649 45.4631 10.5311 44.9393 10.4582C44.4224 10.3611 43.8951 10.316 43.3713 10.257C42.844 10.2223 42.3202 10.1807 41.7929 10.1807C40.7384 10.1599 39.6873 10.2189 38.6431 10.3542C36.5548 10.6213 34.5116 11.2041 32.5967 12.0678C28.7566 13.7919 25.4957 16.6712 23.175 20.154C20.8438 23.6403 19.4909 27.7858 19.3313 32.0214H19.2793C19.2412 30.9599 19.2966 29.8914 19.4285 28.8334C19.5672 27.7754 19.7892 26.7277 20.0806 25.6974C20.6738 23.6438 21.5723 21.67 22.7275 19.8626C23.3137 18.9642 23.9624 18.1038 24.6701 17.2956C25.3812 16.4908 26.1548 15.7415 26.9735 15.0477C28.6178 13.667 30.4598 12.5257 32.4267 11.6758C34.3901 10.8225 36.4785 10.257 38.605 10.0107C39.6665 9.88931 40.7384 9.84075 41.8033 9.87544C42.3376 9.88238 42.8683 9.93094 43.4025 9.97257C43.9333 10.0385 44.4641 10.0905 44.9879 10.1946C49.1923 10.9404 53.1504 12.949 56.2065 15.8976L56.2031 15.8941Z" fill="#081735"/>
<path d="M53.9379 17.4031C53.2198 16.7163 52.4532 16.078 51.6484 15.4952C50.8436 14.9124 49.9902 14.4024 49.1126 13.9411C47.3469 13.0357 45.4528 12.3904 43.5067 12.047C42.5354 11.8562 41.5467 11.773 40.5616 11.7313L39.8192 11.7175C39.5729 11.7209 39.3266 11.7383 39.0803 11.7487L38.3414 11.7834C38.2165 11.7834 38.0951 11.7972 37.9737 11.8146L37.606 11.8597C35.646 12.0817 33.7207 12.5986 31.9203 13.393C28.3057 14.9783 25.2391 17.6668 23.0432 20.9207C21.9366 22.5441 21.059 24.3272 20.4241 26.197C20.1015 27.1301 19.8518 28.0876 19.6714 29.0623C19.5777 29.548 19.5049 30.0371 19.4459 30.5297C19.3939 31.0223 19.3557 31.5184 19.3349 32.0144H19.2829C19.2447 31.0188 19.3037 30.0163 19.432 29.0207C19.5708 28.0286 19.7858 27.0469 20.0703 26.0825C20.2091 25.6003 20.3721 25.1251 20.5525 24.6533C20.7329 24.185 20.948 23.7271 21.1422 23.2657C21.2359 23.0298 21.3608 22.8147 21.4752 22.5892L21.8221 21.9197C21.9332 21.6908 22.0719 21.4826 22.2003 21.2676L22.5957 20.6223C24.7951 17.2366 28.042 14.5551 31.7504 12.9975C33.6028 12.2135 35.5732 11.7105 37.5678 11.5128L37.9425 11.4712C38.0673 11.4538 38.1923 11.4434 38.3171 11.4434L39.0699 11.4191C39.3196 11.4122 39.5729 11.3983 39.8227 11.3983L40.5754 11.4226C41.5745 11.4781 42.577 11.5752 43.5588 11.7834C47.4891 12.5639 51.1627 14.5481 53.9414 17.4031H53.9379Z" fill="#081735"/>
<path d="M51.6693 18.9156C51.0172 18.253 50.3199 17.6321 49.5879 17.0666C48.849 16.5047 48.0685 16.0017 47.2602 15.5472C46.445 15.1032 45.5986 14.7251 44.7348 14.399C43.8641 14.0868 42.9726 13.837 42.0672 13.6462C38.4456 12.9039 34.6123 13.2716 31.2266 14.7216C29.5372 15.4466 27.9589 16.4283 26.5609 17.6147C26.2174 17.92 25.8532 18.201 25.541 18.5375C25.2184 18.8636 24.8819 19.1758 24.587 19.5296C24.2817 19.873 23.9695 20.2061 23.699 20.5807L23.2792 21.1253C23.1335 21.3022 23.019 21.5035 22.8872 21.6908C20.8197 24.7157 19.4876 28.3026 19.335 32.0214H19.283C19.2448 31.0882 19.3003 30.1516 19.4252 29.2219C19.557 28.2957 19.7686 27.3764 20.0426 26.478C20.1779 26.027 20.3306 25.583 20.504 25.1459C20.5873 24.9273 20.6775 24.7088 20.7711 24.4937L21.0695 23.8554C21.1701 23.6438 21.2637 23.4253 21.3747 23.2171L21.7147 22.5996C21.8326 22.395 21.9367 22.1834 22.065 21.9856L22.4501 21.3924C24.5246 18.2391 27.5842 15.7484 31.0705 14.3331C34.5569 12.9004 38.4699 12.5882 42.1296 13.393C45.7894 14.2117 49.1751 16.1682 51.6797 18.926L51.6693 18.9156Z" fill="#081735"/>
<path d="M49.404 20.4282C48.8177 19.7899 48.1933 19.1898 47.5238 18.6417C46.8508 18.1005 46.1466 17.601 45.4008 17.1604C43.9126 16.2897 42.296 15.6375 40.6205 15.2594C37.2764 14.4824 33.693 14.7356 30.5293 16.0434C28.9474 16.6956 27.4731 17.5906 26.1584 18.6798L25.6692 19.0892C25.5062 19.2245 25.357 19.3806 25.2009 19.5263L24.7396 19.9703L24.3059 20.4421C24.1637 20.5982 24.0111 20.7508 23.8723 20.9138L23.4699 21.4099C23.1924 21.7325 22.953 22.0864 22.7033 22.4333C22.2072 23.1271 21.7736 23.8659 21.3781 24.6222C20.9722 25.3749 20.6427 26.1693 20.3409 26.9707C20.0495 27.7755 19.8136 28.6046 19.6471 29.4475C19.4667 30.2905 19.3765 31.1473 19.328 32.0111H19.2759C19.2412 31.1439 19.2863 30.2697 19.4077 29.4059C19.5326 28.5421 19.7338 27.6888 19.9905 26.8527C20.5109 25.1807 21.2879 23.5884 22.2662 22.1315C24.2261 19.2106 27.1019 16.9176 30.3732 15.6479C33.6409 14.3575 37.3007 14.1598 40.6864 15.0027C44.0721 15.8561 47.1734 17.7744 49.404 20.4282Z" fill="#081735"/>
<path d="M47.1388 21.9373C46.615 21.3302 46.0635 20.7474 45.4599 20.2201C45.3142 20.0848 45.1546 19.9634 45.0019 19.8351C44.8493 19.7067 44.6932 19.5784 44.5302 19.4639L44.048 19.1101L43.545 18.784C42.8685 18.3573 42.1678 17.9722 41.4359 17.6635C41.0751 17.4935 40.6969 17.3686 40.3258 17.2264C40.1384 17.164 39.9476 17.1085 39.7568 17.046L39.4724 16.9558L39.1845 16.883L38.6052 16.7373L38.0189 16.6228C37.8246 16.5812 37.6269 16.5534 37.4292 16.5291C37.2314 16.5049 37.0372 16.4736 36.8395 16.4528C36.444 16.4251 36.0485 16.38 35.6496 16.38C35.4519 16.38 35.2541 16.3661 35.0529 16.373L34.4598 16.4008C32.8744 16.4806 31.3064 16.8101 29.8286 17.3756C26.8696 18.5238 24.3477 20.6191 22.5022 23.1722C21.5864 24.4558 20.8371 25.8676 20.2821 27.3523C19.734 28.8405 19.4078 30.4155 19.3315 32.0147H19.2795C19.2414 31.2098 19.2899 30.4016 19.3905 29.6002C19.5085 28.7989 19.6889 28.008 19.9317 27.2309C20.1745 26.4574 20.4798 25.7011 20.8371 24.9692L20.9724 24.6951L21.118 24.428L21.4129 23.8938C21.5066 23.7134 21.6245 23.5469 21.7321 23.3734L22.0616 22.86C23.9106 20.1716 26.6199 18.0867 29.676 16.9697C31.2058 16.4147 32.8189 16.1059 34.4424 16.0504L35.0495 16.0331C35.2507 16.0331 35.4553 16.047 35.6565 16.0504C36.0624 16.0539 36.4648 16.1094 36.8672 16.1441C37.0684 16.1684 37.2696 16.2031 37.4673 16.2308C37.6685 16.2586 37.8663 16.2898 38.064 16.3384L38.6572 16.4632L39.2434 16.6228C42.3551 17.5143 45.165 19.398 47.1319 21.9338L47.1388 21.9373Z" fill="#081735"/>
<path d="M44.87 23.4497C43.9612 22.2876 42.8927 21.2469 41.6786 20.4144C40.4749 19.568 39.1289 18.9435 37.7274 18.5134C37.0232 18.3157 36.3121 18.1387 35.5836 18.052C35.2229 17.9896 34.8551 17.9792 34.4944 17.9445C34.314 17.9306 34.1301 17.9341 33.9462 17.9271C33.7624 17.9271 33.582 17.9133 33.3982 17.9271C31.9377 17.9618 30.4877 18.2255 29.1175 18.7077C27.7437 19.1864 26.4637 19.9149 25.312 20.796C24.1568 21.6736 23.1369 22.7282 22.2835 23.8972C21.4198 25.0628 20.7156 26.3533 20.2091 27.7201C19.9524 28.4034 19.7512 29.1076 19.609 29.8257C19.4563 30.5438 19.3696 31.2758 19.328 32.0112H19.276C19.2378 31.2688 19.276 30.5265 19.3696 29.7841C19.4702 29.0452 19.6333 28.3132 19.8553 27.5986C20.0738 26.8806 20.3583 26.1868 20.6913 25.5138C20.8613 25.1808 21.0348 24.8443 21.236 24.5286L21.5308 24.0464C21.6279 23.8868 21.7424 23.7377 21.8499 23.5816C22.2766 22.9606 22.7762 22.3952 23.2896 21.8471C23.4179 21.7083 23.5602 21.5869 23.6954 21.4551C23.8342 21.3302 23.966 21.1914 24.1117 21.0735C24.4031 20.8376 24.6841 20.5809 24.9928 20.3693C26.207 19.4847 27.5495 18.7632 28.9787 18.3018C30.4044 17.83 31.8996 17.5872 33.3947 17.5768C33.582 17.5664 33.7693 17.5837 33.9567 17.5872C34.144 17.5976 34.3313 17.5976 34.5152 17.6149C34.8863 17.6566 35.261 17.6774 35.6287 17.7467C36.3711 17.8473 37.0926 18.0416 37.8072 18.2567C40.6414 19.1898 43.1564 21.0319 44.87 23.4463V23.4497Z" fill="#081735"/>
<path d="M42.6048 24.9624C41.0473 22.7527 38.8167 21.0216 36.2705 20.1752C35.6391 19.9463 34.987 19.7936 34.3313 19.6687C34.0018 19.6236 33.6722 19.5577 33.3392 19.5404L32.8397 19.4988L32.3401 19.4884C32.0071 19.471 31.6741 19.4988 31.341 19.5092C31.1745 19.5092 31.008 19.5404 30.8415 19.5543C30.675 19.5751 30.5085 19.5855 30.3454 19.6132C30.0194 19.6757 29.6863 19.7138 29.3637 19.7971L28.8781 19.9116L28.3993 20.0573C27.1262 20.4458 25.9364 21.0702 24.8575 21.8403C24.3233 22.2323 23.8099 22.6521 23.3416 23.1204C22.8594 23.5748 22.4292 24.0813 22.0268 24.6051C21.2186 25.6562 20.5803 26.8356 20.1224 28.0879C19.8934 28.7124 19.7131 29.3611 19.5847 30.0202C19.446 30.6758 19.3696 31.3488 19.328 32.0218H19.276C19.2343 31.3418 19.2655 30.6619 19.3419 29.982C19.4286 29.3056 19.5708 28.6326 19.7651 27.9735C20.1536 26.6553 20.7815 25.403 21.5932 24.2859C22.4084 23.1689 23.411 22.1907 24.5488 21.4067C25.6936 20.6331 26.9458 20.0191 28.271 19.6479L28.7671 19.5092L29.2701 19.4016C29.6031 19.3184 29.9465 19.2872 30.2865 19.2317C30.4565 19.2074 30.6299 19.2004 30.7999 19.1831C30.9699 19.1727 31.1398 19.1449 31.3133 19.1484C31.6567 19.1449 32.0001 19.1206 32.3436 19.1484L32.857 19.1692L33.3669 19.2247C33.7104 19.249 34.0434 19.3253 34.3833 19.3773C35.0528 19.5161 35.7189 19.6896 36.3572 19.9359C38.9242 20.8864 41.1409 22.6972 42.6014 24.9763L42.6048 24.9624Z" fill="#081735"/>
<path d="M58.4754 49.6544C55.5094 54.171 51.3709 57.9244 46.5595 60.4325C44.152 61.6813 41.5815 62.6214 38.9346 63.2181C36.2843 63.8147 33.5577 64.0749 30.8415 63.9813C28.1253 63.8911 25.416 63.4609 22.8074 62.6873C20.1987 61.9172 17.6872 60.8071 15.356 59.3987C13.0249 57.9903 10.8706 56.2836 8.96615 54.334C8.50824 53.8276 8.03994 53.335 7.59245 52.8216C7.16923 52.2873 6.73217 51.7635 6.31936 51.2224L5.16416 49.5364L4.64034 48.6588L4.38017 48.2217L4.24835 48.0031L4.18246 47.8921L4.15125 47.8366C4.15125 47.8366 4.13044 47.8228 4.15125 47.7985C4.17206 47.7742 4.22062 47.7326 4.31428 47.6701L4.35938 47.6424C4.46345 47.5938 4.52587 47.573 4.55709 47.5661C4.59178 47.5591 4.58484 47.5765 4.59177 47.5834L4.6265 47.6354L4.69239 47.743L4.82421 47.9546L5.09133 48.3813L5.62209 49.2346L6.79113 50.8685L8.0469 52.433C8.48746 52.936 8.94884 53.4217 9.39634 53.9178C11.2522 55.8465 13.351 57.5428 15.6335 58.9443C17.9161 60.3458 20.3791 61.4524 22.9461 62.2294C25.5097 63.0065 28.1774 63.4505 30.8589 63.5546C33.5404 63.6725 36.2358 63.4436 38.8618 62.8781C41.4878 62.3127 44.041 61.4073 46.4415 60.1931C51.253 57.7857 55.44 54.119 58.4789 49.6544H58.4754Z" fill="#081735"/>
<path d="M4.35583 47.6427C7.08591 52.0241 10.9261 55.6665 15.4219 58.1121C19.9038 60.5786 24.9927 61.9384 30.1268 62.0008C35.254 62.0806 40.4123 60.8908 44.9636 58.4902C47.2428 57.3004 49.3692 55.8122 51.2668 54.0673C53.1643 52.3224 54.8294 50.3277 56.2066 48.1388C53.5563 52.5791 49.6467 56.2527 45.0885 58.7227C40.5233 61.1926 35.3199 62.4518 30.1234 62.4241C27.5251 62.4241 24.9234 62.1049 22.398 61.4666L21.451 61.2238L20.5212 60.9255C20.2125 60.8249 19.9003 60.7277 19.5915 60.6237L18.6827 60.2664C18.3809 60.1415 18.0756 60.0305 17.7773 59.8986L16.8927 59.4789C16.6013 59.3367 16.2995 59.2083 16.0151 59.0522L15.1582 58.5804C12.8965 57.2865 10.7977 55.7116 8.96264 53.8696C8.72328 53.651 8.50818 53.4047 8.28964 53.1654L7.634 52.4438C7.40851 52.2114 7.22122 51.9443 7.01308 51.6945L6.40601 50.9348C6.30194 50.8099 6.21519 50.6746 6.12153 50.5393L5.84746 50.1369L5.29591 49.3356C4.95248 48.784 4.62987 48.2255 4.30379 47.667L4.34889 47.6393L4.35583 47.6427Z" fill="#081735"/>
<path d="M4.35604 47.6425C7.04797 51.774 10.8361 55.1285 15.2243 57.2827C19.6056 59.4474 24.5038 60.5332 29.402 60.4811C31.8511 60.443 34.2968 60.1204 36.673 59.5098C39.0458 58.8923 41.3457 57.9835 43.493 56.7936C44.5684 56.2039 45.6056 55.5413 46.5978 54.8163C47.5864 54.0878 48.5265 53.2899 49.4076 52.4331C51.1699 50.7194 52.7031 48.7629 53.9416 46.6295C51.5618 50.9553 47.9333 54.5839 43.6214 57.026C41.4671 58.2506 39.1534 59.1941 36.7598 59.8463C34.3627 60.4915 31.8893 60.8419 29.409 60.9078L28.4793 60.9217L27.5496 60.9043C26.9287 60.8801 26.3077 60.8523 25.6902 60.7829L24.764 60.6927C24.4553 60.665 24.15 60.6026 23.8413 60.5609L22.9185 60.4187C22.6133 60.3597 22.3115 60.2903 22.0062 60.2279C21.7044 60.162 21.3957 60.103 21.0938 60.0267L20.1954 59.7804C19.5918 59.6312 19.0055 59.4231 18.4158 59.2219L17.9752 59.0693C17.8295 59.0138 17.6873 58.9513 17.5416 58.8958L16.6779 58.542C16.3865 58.431 16.1089 58.2887 15.8279 58.1569L14.985 57.7545C14.7075 57.6158 14.4404 57.4527 14.1663 57.3036C13.8957 57.1509 13.6217 57.0018 13.3545 56.8422L12.5706 56.3392C12.3104 56.1692 12.0433 56.0131 11.7935 55.8223L11.0408 55.2742C10.9159 55.1805 10.7875 55.0938 10.6661 54.9967L10.3053 54.6984L9.58724 54.1052C9.46583 54.008 9.35482 53.9005 9.24034 53.7929L8.90386 53.4738L8.23086 52.832L7.59605 52.1521C7.16243 51.7081 6.77738 51.219 6.38538 50.7402C6.28825 50.6188 6.19113 50.5009 6.094 50.3795L5.82688 50.0014L5.28918 49.2451C4.94228 48.7352 4.63356 48.194 4.31094 47.6702L4.35604 47.6425Z" fill="#081735"/>
<path d="M4.35583 47.6426C5.03922 48.5966 5.733 49.5436 6.54474 50.39C7.31832 51.2677 8.19599 52.0482 9.08405 52.801C10.9018 54.2649 12.9068 55.486 15.0403 56.426C19.3071 58.2889 24.0041 59.1665 28.6733 58.9723C29.8389 58.9202 31.0045 58.8023 32.1562 58.6184C33.3114 58.4346 34.4527 58.1744 35.5766 57.8553C37.8245 57.217 39.9926 56.2908 42.0115 55.1044C44.0374 53.9319 45.8933 52.4679 47.5307 50.789C48.3494 49.9495 49.1056 49.0475 49.7959 48.097C50.4897 47.15 51.1176 46.1544 51.6761 45.1172C50.6042 47.209 49.2548 49.169 47.6348 50.8861C46.0182 52.6032 44.1727 54.1122 42.1503 55.3333C40.1279 56.5544 37.9459 57.5188 35.6772 58.1883C34.5428 58.5248 33.3911 58.8023 32.2256 59C31.06 59.1978 29.8805 59.3296 28.6976 59.399C27.5147 59.4718 26.3283 59.4614 25.1454 59.3955C24.5522 59.3677 23.9625 59.3088 23.3727 59.2463L22.4916 59.1284L22.0511 59.0694C21.9054 59.0486 21.7597 59.0174 21.614 58.9931C21.0312 58.8821 20.4449 58.7849 19.8726 58.6323L19.0088 58.4242L18.1554 58.1709C17.583 58.0114 17.0314 57.7928 16.4695 57.5951C16.1885 57.5014 15.9179 57.3731 15.6439 57.2621C15.3698 57.1476 15.0958 57.0366 14.8252 56.9152C12.6779 55.9057 10.6451 54.6361 8.84814 53.0854C7.97396 52.2876 7.11364 51.4689 6.36434 50.5496C5.59423 49.6511 4.93169 48.6694 4.31421 47.6704L4.35931 47.6426H4.35583Z" fill="#081735"/>
<path d="M4.35583 47.6425C5.68445 49.4429 7.2559 51.0525 9.04936 52.3672L9.38237 52.617C9.49338 52.6967 9.61132 52.7731 9.7258 52.8494L10.4161 53.3177L11.1273 53.7479C11.2452 53.8172 11.3631 53.8935 11.4845 53.9595L11.8523 54.1572C12.8201 54.7018 13.84 55.1424 14.8703 55.5517C15.3906 55.746 15.9075 55.9472 16.4383 56.1068C16.7019 56.1865 16.9621 56.2837 17.2327 56.3531L18.034 56.5716C18.3011 56.6479 18.5717 56.7034 18.8423 56.7693C19.1129 56.8283 19.38 56.9046 19.654 56.9497C20.1986 57.0503 20.7433 57.1648 21.2948 57.2342C21.8429 57.3244 22.3945 57.3764 22.9461 57.4423C23.5011 57.4839 24.0527 57.536 24.6077 57.5498C25.7178 57.5949 26.8313 57.5811 27.9414 57.4943C32.3713 57.1648 36.7526 55.8119 40.5164 53.4148C41.4635 52.8286 42.3654 52.166 43.2188 51.4514C44.0721 50.7333 44.8873 49.9701 45.6332 49.1341C46.379 48.305 47.0763 47.4274 47.7041 46.5012C48.3286 45.5749 48.8975 44.6071 49.4005 43.608C47.5168 47.6806 44.4294 51.1773 40.6587 53.6403C36.8844 56.1068 32.4649 57.536 27.9726 57.921C26.8487 58.0286 25.7178 58.0563 24.5904 58.0286C24.0249 58.0216 23.4629 57.98 22.8975 57.9453C22.3355 57.8898 21.7735 57.8447 21.215 57.7615C20.6531 57.6921 20.0981 57.5845 19.543 57.4839C19.2655 57.4388 18.9914 57.366 18.7139 57.307C18.4399 57.2411 18.1589 57.1925 17.8883 57.1093L17.0696 56.8803C16.7956 56.8075 16.5319 56.7069 16.2613 56.6236C15.7202 56.4571 15.1964 56.2455 14.6656 56.0478C13.6249 55.6072 12.5946 55.1354 11.6198 54.5596L11.2522 54.3515C11.1307 54.2821 11.0128 54.2023 10.8914 54.126L10.1768 53.6715L9.48642 53.1789C9.37194 53.0957 9.25747 53.0159 9.14646 52.9292L8.81693 52.6621C7.9254 51.9683 7.11019 51.1808 6.34355 50.3552L5.78852 49.7169C5.60466 49.5018 5.44162 49.2729 5.26817 49.0509C4.91087 48.6172 4.61946 48.1316 4.30379 47.6702L4.34889 47.639L4.35583 47.6425Z" fill="#081735"/>
<path d="M4.35583 47.6426C5.02535 48.4717 5.7469 49.2522 6.53089 49.9633C7.30447 50.6849 8.15089 51.3266 9.03201 51.9129C10.7873 53.0889 12.7126 53.9978 14.7142 54.6673C16.7123 55.3437 18.7868 55.7912 20.8855 56.034L21.2775 56.0826L21.6729 56.1138C21.9366 56.1346 22.2002 56.1624 22.4639 56.1763C22.9912 56.1971 23.5185 56.2283 24.0492 56.2248C24.5765 56.2353 25.1072 56.2075 25.6345 56.1902L26.4255 56.1346C26.6891 56.1208 26.9527 56.0896 27.2164 56.0583C31.4173 55.5935 35.528 54.14 39.0213 51.7256C40.7696 50.5288 42.3619 49.0961 43.7322 47.4726L44.2386 46.8551L44.7174 46.2168C44.8804 46.0052 45.0295 45.7867 45.1752 45.5647C45.3209 45.3427 45.4805 45.1276 45.6158 44.8986C46.1882 44.0036 46.6877 43.0601 47.1456 42.0957C45.4667 46.0191 42.6707 49.4603 39.1739 51.9441C35.6737 54.4279 31.5248 55.9577 27.2649 56.4815C26.9978 56.5197 26.7307 56.5509 26.4636 56.5717L25.6623 56.6411C25.1246 56.6654 24.5904 56.7036 24.0527 56.7001C23.515 56.714 22.9773 56.6932 22.4396 56.6793C22.1725 56.6689 21.9019 56.6446 21.6348 56.6307L21.2324 56.603L20.83 56.5613C19.7581 56.4607 18.6966 56.2769 17.6455 56.0583C16.5944 55.8259 15.5606 55.5241 14.5407 55.1737C13.5243 54.8199 12.5391 54.3793 11.5782 53.8937C10.6173 53.408 9.69112 52.853 8.8204 52.2216C7.94969 51.5903 7.11711 50.9069 6.36434 50.1437C5.61504 49.3771 4.92128 48.5584 4.31421 47.6773L4.35583 47.6461V47.6426Z" fill="#081735"/>
<path d="M4.35605 47.6394C5.03597 48.3887 5.76791 49.0895 6.55884 49.7139C7.34283 50.3487 8.17192 50.9211 9.03916 51.4276C10.7702 52.4474 12.633 53.2384 14.5583 53.8003C18.4054 54.9382 22.4953 55.2885 26.4742 54.6745C30.4462 54.0571 34.276 52.4683 37.4917 50.0296L38.0884 49.5647C38.2861 49.4086 38.4734 49.2386 38.6677 49.0791C39.0597 48.7599 39.4135 48.3991 39.7847 48.0592C39.9616 47.8823 40.1351 47.6984 40.312 47.5146L40.5756 47.2405L40.8254 46.9561L41.3249 46.3871L41.7967 45.7939C41.873 45.6933 41.9563 45.5962 42.0326 45.4956L42.2546 45.1869C42.4003 44.9822 42.5529 44.7775 42.6952 44.5694C42.9658 44.1427 43.2571 43.7264 43.5 43.2824C43.6248 43.0639 43.7566 42.8453 43.8815 42.6268L44.2319 41.9538C44.2909 41.8428 44.3498 41.7283 44.4053 41.6173L44.565 41.2704L44.8806 40.5801C43.3785 44.3439 40.8774 47.7296 37.6617 50.2412C34.4459 52.7492 30.5815 54.4178 26.5505 55.0977C22.5231 55.7811 18.3187 55.5452 14.4091 54.3138C12.4596 53.6893 10.5724 52.8533 8.84835 51.7467C7.98805 51.1917 7.1694 50.5777 6.40622 49.9012C5.64999 49.2178 4.94231 48.4789 4.32137 47.6741L4.36299 47.6394H4.35605Z" fill="#081735"/>
<path d="M4.35236 47.6391C7.23855 50.1958 10.6798 52.0898 14.3777 53.0646C14.6067 53.1374 14.8391 53.1825 15.0715 53.2415C15.3039 53.297 15.5329 53.3595 15.7688 53.4046L16.4729 53.5364L16.8233 53.6023L17.1772 53.6509L17.8848 53.7515C18.1207 53.7827 18.3601 53.8 18.596 53.8243C19.0712 53.8798 19.5465 53.8937 20.0252 53.9145C20.2645 53.9318 20.5039 53.9249 20.7398 53.9249C20.9792 53.9249 21.2185 53.9249 21.4544 53.9249L22.169 53.8902L22.5263 53.8729L22.8836 53.8382L23.5982 53.7688C23.8341 53.7376 24.07 53.6994 24.3094 53.6647C24.7846 53.6058 25.2495 53.4982 25.7212 53.408C27.591 53.0022 29.4088 52.3535 31.1294 51.5174C32.843 50.6571 34.4596 49.6026 35.9235 48.3607C37.3839 47.1153 38.7091 45.7034 39.8296 44.1355C40.9466 42.5675 41.8763 40.8642 42.6013 39.0742C41.9283 40.885 41.0368 42.616 39.944 44.2152C38.8513 45.8144 37.547 47.2679 36.097 48.5584C34.6331 49.835 33.0096 50.9277 31.2855 51.8227C29.5475 52.6969 27.7124 53.3837 25.8149 53.8208C25.3397 53.9214 24.8644 54.0394 24.3822 54.1053C24.1429 54.1434 23.9001 54.1885 23.6607 54.2232L22.9356 54.3065L22.5714 54.3481L22.2072 54.3724L21.4787 54.421C21.2359 54.4314 20.9896 54.4314 20.7467 54.4383C20.5039 54.4383 20.2576 54.4522 20.0148 54.4383C19.5257 54.421 19.04 54.4106 18.5509 54.362C18.308 54.3412 18.0652 54.3238 17.8224 54.2961L17.0974 54.1955L16.7331 54.1434L16.3724 54.0741L15.6543 53.9318C15.4149 53.8833 15.179 53.8174 14.9432 53.7584C14.7073 53.696 14.4679 53.6474 14.2355 53.5745C13.7706 53.4219 13.2988 53.297 12.8444 53.1166L12.1576 52.8634C11.9321 52.7732 11.7066 52.6795 11.4811 52.5859C10.5861 52.1974 9.71194 51.7637 8.87592 51.2642C8.0399 50.7647 7.23855 50.2131 6.4719 49.6199C5.7122 49.0128 4.98719 48.3676 4.31421 47.6738L4.35236 47.6356V47.6391Z" fill="#081735"/>
<path d="M47.5067 25.3759H48.6897V37.7582H55.5328V38.8619H47.5067V25.3759Z" fill="#081735"/>
<path d="M62.7862 24.9999H63.1621L68.9601 38.8619H67.6978L65.7835 34.385H60.1649L58.292 38.8619H57.0296L62.7862 24.9999ZM63.4588 28.6663C63.2484 28.142 63.0828 27.6281 62.9656 27.128C62.8069 27.7454 62.6517 28.2593 62.493 28.6663L60.6409 33.2812H65.3144L63.4622 28.6663H63.4588Z" fill="#081735"/>
<path d="M81.498 38.7242C81.2359 38.907 80.9462 39.0001 80.6288 39.0001C80.246 39.0001 79.9459 38.9242 79.7217 38.7725C79.4975 38.6207 79.3078 38.4414 79.1491 38.231L76.8038 35.0578C76.345 34.4404 75.938 34.023 75.5897 33.8057C75.2413 33.5884 74.7653 33.4608 74.1617 33.4229V32.3192H75.8759C76.7313 32.3192 77.4143 32.0639 77.9282 31.55C78.4421 31.0361 78.6973 30.3394 78.6973 29.4598C78.6973 28.5803 78.4524 27.8801 77.9661 27.3214C77.4798 26.7626 76.8555 26.4832 76.0932 26.4832H72.9373V38.8656H71.7542V25.3795H76.1726C76.8831 25.3795 77.5177 25.5554 78.0765 25.9003C78.6352 26.2487 79.0767 26.7247 79.3975 27.3283C79.7183 27.9319 79.8804 28.6044 79.8804 29.3391C79.8804 30.0358 79.7424 30.6532 79.4665 31.1913C79.1906 31.7294 78.8629 32.157 78.48 32.4744C78.0972 32.7882 77.7454 32.9814 77.4143 33.0469C77.1901 33.0849 76.9314 33.1021 76.6348 33.0952C76.3381 33.0883 76.1829 33.0849 76.1726 33.0849C76.5934 33.178 76.9555 33.4194 77.2556 33.8161L78.0454 34.8991C78.2834 35.213 78.6387 35.7028 79.1216 36.3581C79.601 37.0169 79.9149 37.4239 80.0597 37.5791C80.1528 37.686 80.2322 37.7584 80.3046 37.8067C80.3771 37.8516 80.4771 37.8757 80.6116 37.8757C80.7806 37.8757 80.9151 37.8378 81.0048 37.7584L81.498 38.7242Z" fill="#081735"/>
<path d="M84.2606 25.3759H85.4643V38.8619H84.2606V25.3759Z" fill="#081735"/>
<path d="M92.8937 26.4796H88.2788V25.3759H98.6882V26.4796H94.0733V38.8619H92.8903V26.4796H92.8937Z" fill="#081735"/>
<path d="M100.861 26.635C100.744 26.4108 100.52 26.3004 100.192 26.3004V25.176C100.585 25.176 100.916 25.2519 101.179 25.4037C101.441 25.5554 101.665 25.7934 101.848 26.1245L104.924 31.7259L108.453 25.3588H109.794L105.514 32.971L105.552 38.8656H104.348V33.009L100.858 26.6419L100.861 26.635Z" fill="#081735"/>
</svg>
